<svg width="28" height="28" viewBox="0 0 28 28" fill="none" xmlns="http://www.w3.org/2000/svg">
<path d="M16.5653 13.9999L27.4679 3.09695C28.1774 2.38776 28.1774 1.24109 27.4679 0.531895C26.7587 -0.177298 25.612 -0.177298 24.9029 0.531895L13.9999 11.4349L3.0972 0.531895C2.38768 -0.177298 1.24134 -0.177298 0.532145 0.531895C-0.177382 1.24109 -0.177382 2.38776 0.532145 3.09695L11.4348 13.9999L0.532145 24.9029C-0.177382 25.6121 -0.177382 26.7588 0.532145 27.468C0.885579 27.8217 1.35029 27.9994 1.81467 27.9994C2.27906 27.9994 2.74344 27.8217 3.0972 27.468L13.9999 16.565L24.9029 27.468C25.2566 27.8217 25.721 27.9994 26.1854 27.9994C26.6498 27.9994 27.1141 27.8217 27.4679 27.468C28.1774 26.7588 28.1774 25.6121 27.4679 24.9029L16.5653 13.9999Z" fill="#175B8F"/>
</svg>
