<svg width="117" height="100" viewBox="0 0 117 100" fill="none" xmlns="http://www.w3.org/2000/svg">
<path d="M114.507 0.82056C112.767 0.262763 110.113 0.509611 106.227 1.61789C93.8352 5.15136 49.4743 58.1398 42.8552 67.0606C42.6845 67.2906 42.449 67.4306 42.1977 67.4857C41.5746 66.3606 39.708 63.2039 34.2265 54.7706C29.6121 47.6704 26.6395 44.5463 24.9915 43.18C24.9864 43.1738 24.9807 43.1687 24.9751 43.1625C23.8781 41.5825 20.8729 41.3098 11.3618 43.6427C5.78278 45.0108 3.02428 46.8596 1.69517 48.1546C1.13457 48.5167 0.746373 49.0543 0.551993 49.6531C0.537344 49.6868 0.530019 49.706 0.530019 49.706L0.536215 49.7043C0.23873 50.6815 0.45621 51.8089 1.31768 52.6007C14.4054 64.6343 25.3977 83.5269 30.8612 93.4081C34.0405 99.1587 39.7418 100.557 45.7816 97.9503C45.967 97.8705 46.1546 97.7884 46.3445 97.7046C50.249 95.9789 52.1263 93.0123 54.6454 89.0931C56.5559 86.1196 58.3081 83.5854 60.9292 78.708C74.3098 53.8096 105.402 14.4579 114.668 6.72016C117.301 4.52046 118.282 2.03006 114.507 0.82056Z" fill="#95C11F"/>
</svg>
