<svg width="143" height="142" viewBox="0 0 143 142" fill="none" xmlns="http://www.w3.org/2000/svg">
<path d="M122.794 50.3508C125.432 56.9134 126.772 63.8532 126.772 71C126.772 101.613 101.816 126.519 71.1418 126.519C40.4676 126.519 15.5121 101.613 15.5121 71C15.5121 40.3869 40.4676 15.4811 71.1418 15.4811C85.034 15.4811 98.3144 20.6115 108.575 29.9327C112.347 26.0141 115.793 22.5976 118.879 19.718C119.129 19.4852 119.374 19.2581 119.616 19.0343C106.41 6.7588 89.2016 0 71.1418 0C61.5383 0 52.2216 1.87751 43.4498 5.58023C34.9782 9.15643 27.3698 14.2756 20.8369 20.7954C14.3041 27.3152 9.17472 34.9085 5.59137 43.3631C1.88126 52.1175 0 61.4157 0 71C0 80.5843 1.88126 89.8825 5.59137 98.6369C9.17472 107.092 14.3041 114.685 20.8369 121.205C27.3698 127.724 34.9782 132.844 43.4498 136.42C52.2216 140.122 61.5383 142 71.1418 142C80.7453 142 90.062 140.122 98.8339 136.42C107.305 132.844 114.914 127.724 121.447 121.205C127.98 114.685 133.109 107.092 136.692 98.6369C140.402 89.8825 142.284 80.5843 142.284 71C142.284 64.9857 141.529 59.0102 140.039 53.2393C138.593 47.6372 136.453 42.2155 133.679 37.1245L133.5 36.7978C130.18 40.8356 126.6 45.3548 123.012 50.064C122.939 50.1591 122.866 50.2547 122.794 50.3508Z" fill="#95C11F"/>
</svg>
